<?xml version="1.0" standalone="no"?>
<svg width="567.429" height="386.304" viewBox="0 0 567.429 386.304" xmlns="http://www.w3.org/2000/svg" shape-rendering="crispEdges">
<title>
Graf.svg
</title>
<desc>
Creator: ROOT Version 6.28/00
CreationDate: Sun Apr  2 19:49:38 2023</desc>
<defs>
</defs>
<rect x="0.5" y="0" width="566.929" height="385.804" fill="white"/>
<rect x="57.1929" y="38.5804" width="453.543" height="308.643" fill="white"/>
<rect x="57.1929" y="38.5804" width="453.543" height="308.643" fill="none" stroke="black"/>
<path d="M57.1929,347.224h 453.543" fill="none" stroke="black"/>
<path d="M81.8508,38.5804v 308.643" fill="none" stroke="black" stroke-dasharray=" 1, 2"/>
<path d="M126.765,38.5804v 308.643" fill="none" stroke="black" stroke-dasharray=" 1, 2"/>
<path d="M171.679,38.5804v 308.643" fill="none" stroke="black" stroke-dasharray=" 1, 2"/>
<path d="M216.593,38.5804v 308.643" fill="none" stroke="black" stroke-dasharray=" 1, 2"/>
<path d="M261.507,38.5804v 308.643" fill="none" stroke="black" stroke-dasharray=" 1, 2"/>
<path d="M306.422,38.5804v 308.643" fill="none" stroke="black" stroke-dasharray=" 1, 2"/>
<path d="M351.336,38.5804v 308.643" fill="none" stroke="black" stroke-dasharray=" 1, 2"/>
<path d="M396.25,38.5804v 308.643" fill="none" stroke="black" stroke-dasharray=" 1, 2"/>
<path d="M441.164,38.5804v 308.643" fill="none" stroke="black" stroke-dasharray=" 1, 2"/>
<path d="M486.078,38.5804v 308.643" fill="none" stroke="black" stroke-dasharray=" 1, 2"/>
<path d="M81.8508,38.5804v 308.643" fill="none" stroke="black" stroke-dasharray=" 1, 2"/>
<path d="M486.078,38.5804v 308.643" fill="none" stroke="black" stroke-dasharray=" 1, 2"/>
<path d="M57.1929,347.224v -308.643" fill="none" stroke="black"/>
<path d="M510.736,347.224h -453.543" fill="none" stroke="black" stroke-dasharray=" 1, 2"/>
<path d="M510.736,299.74h -453.543" fill="none" stroke="black" stroke-dasharray=" 1, 2"/>
<path d="M510.736,252.257h -453.543" fill="none" stroke="black" stroke-dasharray=" 1, 2"/>
<path d="M510.736,204.773h -453.543" fill="none" stroke="black" stroke-dasharray=" 1, 2"/>
<path d="M510.736,157.289h -453.543" fill="none" stroke="black" stroke-dasharray=" 1, 2"/>
<path d="M510.736,109.806h -453.543" fill="none" stroke="black" stroke-dasharray=" 1, 2"/>
<path d="M510.736,62.3222h -453.543" fill="none" stroke="black" stroke-dasharray=" 1, 2"/>
<path d="M510.736,62.3222h -453.543" fill="none" stroke="black" stroke-dasharray=" 1, 2"/>
<path d="M57.1929,347.224h 453.543" fill="none" stroke="black"/>
<path d="M81.8508,337.964v 9.2593" fill="none" stroke="black"/>
<path d="M104.308,342.594v 4.62965" fill="none" stroke="black"/>
<path d="M126.765,337.964v 9.2593" fill="none" stroke="black"/>
<path d="M149.222,342.594v 4.62965" fill="none" stroke="black"/>
<path d="M171.679,337.964v 9.2593" fill="none" stroke="black"/>
<path d="M194.136,342.594v 4.62965" fill="none" stroke="black"/>
<path d="M216.593,337.964v 9.2593" fill="none" stroke="black"/>
<path d="M239.05,342.594v 4.62965" fill="none" stroke="black"/>
<path d="M261.507,337.964v 9.2593" fill="none" stroke="black"/>
<path d="M283.965,342.594v 4.62965" fill="none" stroke="black"/>
<path d="M306.422,337.964v 9.2593" fill="none" stroke="black"/>
<path d="M328.879,342.594v 4.62965" fill="none" stroke="black"/>
<path d="M351.336,337.964v 9.2593" fill="none" stroke="black"/>
<path d="M373.793,342.594v 4.62965" fill="none" stroke="black"/>
<path d="M396.25,337.964v 9.2593" fill="none" stroke="black"/>
<path d="M418.707,342.594v 4.62965" fill="none" stroke="black"/>
<path d="M441.164,337.964v 9.2593" fill="none" stroke="black"/>
<path d="M463.621,342.594v 4.62965" fill="none" stroke="black"/>
<path d="M486.078,337.964v 9.2593" fill="none" stroke="black"/>
<path d="M81.8508,337.964v 9.2593" fill="none" stroke="black"/>
<path d="M59.3937,342.594v 4.62965" fill="none" stroke="black"/>
<path d="M486.078,337.964v 9.2593" fill="none" stroke="black"/>
<path d="M508.535,342.594v 4.62965" fill="none" stroke="black"/>
<text xml:space="preserve" x="79.2853" y="359.813" fill="black" font-size="12.8882" font-family="Helvetica">1</text>
<text xml:space="preserve" x="122.333" y="359.813" fill="black" font-size="12.8882" font-family="Helvetica">2</text>
<text xml:space="preserve" x="167.005" y="359.813" fill="black" font-size="12.8882" font-family="Helvetica">3</text>
<text xml:space="preserve" x="212.489" y="359.813" fill="black" font-size="12.8882" font-family="Helvetica">4</text>
<text xml:space="preserve" x="257.161" y="359.813" fill="black" font-size="12.8882" font-family="Helvetica">5</text>
<text xml:space="preserve" x="301.833" y="359.813" fill="black" font-size="12.8882" font-family="Helvetica">6</text>
<text xml:space="preserve" x="346.505" y="359.813" fill="black" font-size="12.8882" font-family="Helvetica">7</text>
<text xml:space="preserve" x="391.99" y="359.813" fill="black" font-size="12.8882" font-family="Helvetica">8</text>
<text xml:space="preserve" x="436.662" y="359.813" fill="black" font-size="12.8882" font-family="Helvetica">9</text>
<text xml:space="preserve" x="478.085" y="359.813" fill="black" font-size="12.8882" font-family="Helvetica">10</text>
<text xml:space="preserve" x="447.221" y="372.809" fill="black" font-size="12.8882" font-family="Helvetica">length [cm]</text>
<path d="M57.1929,347.224v -308.643" fill="none" stroke="black"/>
<path d="M70.7992,347.224h -13.6063" fill="none" stroke="black"/>
<path d="M63.9961,337.727h -6.80315" fill="none" stroke="black"/>
<path d="M63.9961,328.23h -6.80315" fill="none" stroke="black"/>
<path d="M63.9961,318.734h -6.80315" fill="none" stroke="black"/>
<path d="M63.9961,309.237h -6.80315" fill="none" stroke="black"/>
<path d="M70.7992,299.74h -13.6063" fill="none" stroke="black"/>
<path d="M63.9961,290.243h -6.80315" fill="none" stroke="black"/>
<path d="M63.9961,280.747h -6.80315" fill="none" stroke="black"/>
<path d="M63.9961,271.25h -6.80315" fill="none" stroke="black"/>
<path d="M63.9961,261.753h -6.80315" fill="none" stroke="black"/>
<path d="M70.7992,252.257h -13.6063" fill="none" stroke="black"/>
<path d="M63.9961,242.76h -6.80315" fill="none" stroke="black"/>
<path d="M63.9961,233.263h -6.80315" fill="none" stroke="black"/>
<path d="M63.9961,223.766h -6.80315" fill="none" stroke="black"/>
<path d="M63.9961,214.27h -6.80315" fill="none" stroke="black"/>
<path d="M70.7992,204.773h -13.6063" fill="none" stroke="black"/>
<path d="M63.9961,195.276h -6.80315" fill="none" stroke="black"/>
<path d="M63.9961,185.78h -6.80315" fill="none" stroke="black"/>
<path d="M63.9961,176.283h -6.80315" fill="none" stroke="black"/>
<path d="M63.9961,166.786h -6.80315" fill="none" stroke="black"/>
<path d="M70.7992,157.289h -13.6063" fill="none" stroke="black"/>
<path d="M63.9961,147.793h -6.80315" fill="none" stroke="black"/>
<path d="M63.9961,138.296h -6.80315" fill="none" stroke="black"/>
<path d="M63.9961,128.799h -6.80315" fill="none" stroke="black"/>
<path d="M63.9961,119.303h -6.80315" fill="none" stroke="black"/>
<path d="M70.7992,109.806h -13.6063" fill="none" stroke="black"/>
<path d="M63.9961,100.309h -6.80315" fill="none" stroke="black"/>
<path d="M63.9961,90.8124h -6.80315" fill="none" stroke="black"/>
<path d="M63.9961,81.3157h -6.80315" fill="none" stroke="black"/>
<path d="M63.9961,71.8189h -6.80315" fill="none" stroke="black"/>
<path d="M70.7992,62.3222h -13.6063" fill="none" stroke="black"/>
<path d="M70.7992,62.3222h -13.6063" fill="none" stroke="black"/>
<path d="M63.9961,52.8255h -6.80315" fill="none" stroke="black"/>
<path d="M63.9961,43.3288h -6.80315" fill="none" stroke="black"/>
<text xml:space="preserve" x="46.7965" y="351.691" fill="black" font-size="12.8882" font-family="Helvetica">0</text>
<text xml:space="preserve" x="39.4865" y="304.582" fill="black" font-size="12.8882" font-family="Helvetica">10</text>
<text xml:space="preserve" x="39.4865" y="256.661" fill="black" font-size="12.8882" font-family="Helvetica">20</text>
<text xml:space="preserve" x="39.4865" y="209.553" fill="black" font-size="12.8882" font-family="Helvetica">30</text>
<text xml:space="preserve" x="39.4865" y="161.632" fill="black" font-size="12.8882" font-family="Helvetica">40</text>
<text xml:space="preserve" x="39.4865" y="114.523" fill="black" font-size="12.8882" font-family="Helvetica">50</text>
<text xml:space="preserve" x="39.4865" y="66.602" fill="black" font-size="12.8882" font-family="Helvetica">60</text>
<g transform="rotate(-90,27.3032,91.7808)">
<text xml:space="preserve" x="27.3032" y="91.7808" fill="black" font-size="12.8882" font-family="Helvetica">Arb.Units</text>
</g>
<text xml:space="preserve" x="136.953" y="17.8688" fill="black" font-size="18.7414" font-family="Helvetica">Measurement XYZ and Expectation</text>
<path d="M81.8508,316.359l 44.9142, -30.8643l 44.9142, -30.8643l 44.9142, -30.8643l 44.9142, -36.5624l 44.9142, -34.1882l 44.9142, -30.8643l 44.9142, -35.1379l 44.9142, -31.814l 19.1707, -16.6193h 25.7435v 69.8009l -44.9142, 18.0438l -44.9142,
 25.1663l -44.9142, 21.8425l -44.9142, 26.116l -44.9142, 22.7921l -44.9142, 20.4179l -44.9142, 26.116l -44.9142, 26.116l -44.9142, 26.116z" fill="#ffff00"/>
<path d="M81.8508,315.485v -20.4929" fill="none" stroke="#0000ff" stroke-width="2"/>
<path d="M80.2264,294.992h 3.24888" fill="none" stroke="#0000ff" stroke-width="2"/>
<path d="M81.8508,321.983v 20.4929" fill="none" stroke="#0000ff" stroke-width="2"/>
<path d="M80.2264,342.475h 3.24888" fill="none" stroke="#0000ff" stroke-width="2"/>
<path d="M126.765,286.995v -20.4929" fill="none" stroke="#0000ff" stroke-width="2"/>
<path d="M125.141,266.502h 3.24888" fill="none" stroke="#0000ff" stroke-width="2"/>
<path d="M126.765,293.492v 20.4929" fill="none" stroke="#0000ff" stroke-width="2"/>
<path d="M125.141,313.985h 3.24888" fill="none" stroke="#0000ff" stroke-width="2"/>
<path d="M171.679,277.498v -19.0684" fill="none" stroke="#0000ff" stroke-width="2"/>
<path d="M170.055,258.429h 3.24888" fill="none" stroke="#0000ff" stroke-width="2"/>
<path d="M171.679,283.996v 19.0684" fill="none" stroke="#0000ff" stroke-width="2"/>
<path d="M170.055,303.064h 3.24888" fill="none" stroke="#0000ff" stroke-width="2"/>
<path d="M216.593,249.008v -18.1187" fill="none" stroke="#0000ff" stroke-width="2"/>
<path d="M214.969,230.889h 3.24888" fill="none" stroke="#0000ff" stroke-width="2"/>
<path d="M216.593,255.505v 18.1187" fill="none" stroke="#0000ff" stroke-width="2"/>
<path d="M214.969,273.624h 3.24888" fill="none" stroke="#0000ff" stroke-width="2"/>
<path d="M261.507,239.511v -16.6942" fill="none" stroke="#0000ff" stroke-width="2"/>
<path d="M259.883,222.817h 3.24888" fill="none" stroke="#0000ff" stroke-width="2"/>
<path d="M261.507,246.009v 16.6942" fill="none" stroke="#0000ff" stroke-width="2"/>
<path d="M259.883,262.703h 3.24888" fill="none" stroke="#0000ff" stroke-width="2"/>
<path d="M306.422,230.014v -20.9678" fill="none" stroke="#0000ff" stroke-width="2"/>
<path d="M304.797,209.047h 3.24888" fill="none" stroke="#0000ff" stroke-width="2"/>
<path d="M306.422,236.512v 20.9678" fill="none" stroke="#0000ff" stroke-width="2"/>
<path d="M304.797,257.48h 3.24888" fill="none" stroke="#0000ff" stroke-width="2"/>
<path d="M351.336,177.782v -10.5214" fill="none" stroke="#0000ff" stroke-width="2"/>
<path d="M349.711,167.261h 3.24888" fill="none" stroke="#0000ff" stroke-width="2"/>
<path d="M351.336,184.28v 10.5214" fill="none" stroke="#0000ff" stroke-width="2"/>
<path d="M349.711,194.801h 3.24888" fill="none" stroke="#0000ff" stroke-width="2"/>
<path d="M396.25,130.299v -16.2194" fill="none" stroke="#0000ff" stroke-width="2"/>
<path d="M394.626,114.079h 3.24888" fill="none" stroke="#0000ff" stroke-width="2"/>
<path d="M396.25,136.796v 16.2194" fill="none" stroke="#0000ff" stroke-width="2"/>
<path d="M394.626,153.016h 3.24888" fill="none" stroke="#0000ff" stroke-width="2"/>
<path d="M441.164,135.047v -19.5432" fill="none" stroke="#0000ff" stroke-width="2"/>
<path d="M439.54,115.504h 3.24888" fill="none" stroke="#0000ff" stroke-width="2"/>
<path d="M441.164,141.545v 19.5432" fill="none" stroke="#0000ff" stroke-width="2"/>
<path d="M439.54,161.088h 3.24888" fill="none" stroke="#0000ff" stroke-width="2"/>
<path d="M486.078,92.3119v -22.5347" fill="none" stroke="#0000ff" stroke-width="2"/>
<path d="M484.454,69.7771h 3.24888" fill="none" stroke="#0000ff" stroke-width="2"/>
<path d="M486.078,98.8096v 22.5347" fill="none" stroke="#0000ff" stroke-width="2"/>
<path d="M484.454,121.344h 3.24888" fill="none" stroke="#0000ff" stroke-width="2"/>
<g stroke="#0000ff" stroke-width="1" fill="none">
<circle cx="81.8508" cy="318.734" r="3.24888"/>
<circle cx="126.765" cy="290.243" r="3.24888"/>
<circle cx="171.679" cy="280.747" r="3.24888"/>
<circle cx="216.593" cy="252.257" r="3.24888"/>
<circle cx="261.507" cy="242.76" r="3.24888"/>
<circle cx="306.422" cy="233.263" r="3.24888"/>
<circle cx="351.336" cy="181.031" r="3.24888"/>
<circle cx="396.25" cy="133.548" r="3.24888"/>
<circle cx="441.164" cy="138.296" r="3.24888"/>
<circle cx="486.078" cy="95.5607" r="3.24888"/>
</g>
<path d="M59.4606,339.695l 4.53543, -2.48738l 4.53543, -2.48738l 4.53543, -2.48738l 4.53543, -2.48738l 4.53543, -2.48738l 4.53543, -2.48738l 4.53543, -2.48738l 4.53543, -2.48738l 4.53543, -2.48738l 4.53543, -2.48738l 4.53543, -2.48738l 4.53543,
 -2.48738l 4.53543, -2.48738l 4.53543, -2.48738l 4.53543, -2.48738l 4.53543, -2.48738l 4.53543, -2.48738l 4.53543, -2.48738l 4.53543, -2.48738l 4.53543, -2.48738l 4.53543, -2.48738l 4.53543, -2.48738l 4.53543, -2.48738l 4.53543, -2.48738l 4.53543,
 -2.48738l 4.53543, -2.48738l 4.53543, -2.48738l 4.53543, -2.48738l 4.53543, -2.48738l 4.53543, -2.48738l 4.53543, -2.48738l 4.53543, -2.48738l 4.53543, -2.48738l 4.53543, -2.48738l 4.53543, -2.48738l 4.53543, -2.48738l 4.53543, -2.48738l 4.53543,
 -2.48738l 4.53543, -2.48738l 4.53543, -2.48738l 4.53543, -2.48738l 4.53543, -2.48738l 4.53543, -2.48738l 4.53543, -2.48738l 4.53543, -2.48738l 4.53543, -2.48738l 4.53543, -2.48738l 4.53543, -2.48738l 4.53543, -2.48738" fill="none" stroke="#ff0000"
 stroke-width="2" stroke-dasharray=" 3, 3"/>
<path d="M281.697,217.814l 4.53543, -2.48738l 4.53543, -2.48738l 4.53543, -2.48738l 4.53543, -2.48738l 4.53543, -2.48738l 4.53543, -2.48738l 4.53543, -2.48738l 4.53543, -2.48738l 4.53543, -2.48738l 4.53543, -2.48738l 4.53543, -2.48738l 4.53543,
 -2.48738l 4.53543, -2.48738l 4.53543, -2.48738l 4.53543, -2.48738l 4.53543, -2.48738l 4.53543, -2.48738l 4.53543, -2.48738l 4.53543, -2.48738l 4.53543, -2.48738l 4.53543, -2.48738l 4.53543, -2.48738l 4.53543, -2.48738l 4.53543, -2.48738l 4.53543,
 -2.48738l 4.53543, -2.48738l 4.53543, -2.48738l 4.53543, -2.48738l 4.53543, -2.48738l 4.53543, -2.48738l 4.53543, -2.48738l 4.53543, -2.48738l 4.53543, -2.48738l 4.53543, -2.48738l 4.53543, -2.48738l 4.53543, -2.48738l 4.53543, -2.48738l 4.53543,
 -2.48738l 4.53543, -2.48738l 4.53543, -2.48738l 4.53543, -2.48738l 4.53543, -2.48738l 4.53543, -2.48738l 4.53543, -2.48738l 4.53543, -2.48738l 4.53543, -2.48738l 4.53543, -2.48738l 4.53543, -2.48738l 4.53543, -2.48738" fill="none" stroke="#ff0000"
 stroke-width="2" stroke-dasharray=" 3, 3"/>
<path d="M503.933,95.9324l 4.53543, -2.48738" fill="none" stroke="#ff0000" stroke-width="2" stroke-dasharray=" 3, 3"/>
<rect x="57.1929" y="38.5804" width="113.386" height="77.1608" fill="white"/>
<path d="M57.1929,115.741h 113.386" fill="none" stroke="black"/>
<path d="M170.579,115.741v -77.1608" fill="none" stroke="black"/>
<path d="M170.579,38.5804h -113.386" fill="none" stroke="black"/>
<path d="M57.1929,38.5804v 77.1608" fill="none" stroke="black"/>
<text xml:space="preserve" x="84.9708" y="53.6065" fill="black" font-size="5.85214" font-family="Helvetica">Valores experimentales</text>
<path d="M71.3661,48.1917v -4.46721" fill="none" stroke="#0000ff" stroke-width="2"/>
<path d="M71.3661,54.6894v 4.46721" fill="none" stroke="#0000ff" stroke-width="2"/>
<path d="M69.3819,43.7245h 3.9685" fill="none" stroke="#0000ff" stroke-width="2"/>
<path d="M69.3819,59.1566h 3.9685" fill="none" stroke="#0000ff" stroke-width="2"/>
<g stroke="#0000ff" stroke-width="1" fill="none">
<circle cx="71.3661" cy="51.4406" r="3.24888"/>
</g>
<text xml:space="preserve" x="84.9708" y="79.5975" fill="black" font-size="5.85214" font-family="Helvetica">Ajuste  experimental y(x)=mx+b</text>
<path d="M61.4449,77.1608h 19.8425" fill="none" stroke="#ff0000" stroke-width="2" stroke-dasharray=" 3, 3"/>
<text xml:space="preserve" x="84.9708" y="104.776" fill="black" font-size="5.85214" font-family="Helvetica">Valores teoricos</text>
<path d="M61.4449,111.883h 19.8425v -18.0042h -19.8425z" fill="#ffff00"/>
<path d="M61.4449,102.881h 19.8425" fill="none" stroke="black"/>
<text xml:space="preserve" x="397.675" y="318.39" fill="black" font-size="18.1974" font-family="Helvetica" font-weight="bold"> b= 0.53072</text>
<text xml:space="preserve" x="386.304" y="318.39" fill="black" font-size="18.1974" font-family="Times">&#0916;</text>
<text xml:space="preserve" x="261.222" y="318.39" fill="black" font-size="18.1974" font-family="Helvetica" font-weight="bold"> b=5.18756 ;   </text>
<text xml:space="preserve" x="413.107" y="289.962" fill="black" font-size="18.1974" font-family="Helvetica" font-weight="bold"> m=3.33409</text>
<text xml:space="preserve" x="401.736" y="289.962" fill="black" font-size="18.1974" font-family="Times">&#0916;</text>
<text xml:space="preserve" x="261.222" y="289.962" fill="black" font-size="18.1974" font-family="Helvetica" font-weight="bold"> m=-1.01604  ;   </text>
<text xml:space="preserve" x="136.953" y="17.8688" fill="black" font-size="18.7414" font-family="Helvetica">Measurement XYZ and Expectation</text></svg>
